<svg xmlns="http://www.w3.org/2000/svg" xmlns:xlink="http://www.w3.org/1999/xlink" width="138.028" height="32.705" viewBox="0 0 138.028 32.705"><defs><clipPath id="clip-path"><rect id="Ret&#xE2;ngulo_146" data-name="Ret&#xE2;ngulo 146" width="138.028" height="32.705" fill="none"></rect></clipPath></defs><g id="logo-tlantic-header" transform="translate(0 0)"><rect id="Ret&#xE2;ngulo_143" data-name="Ret&#xE2;ngulo 143" width="7.416" height="24.033" transform="translate(105.438 8.671)" fill="#fff"></rect><rect id="Ret&#xE2;ngulo_144" data-name="Ret&#xE2;ngulo 144" width="7.416" height="6.35" transform="translate(105.438 0)" fill="#fff"></rect><rect id="Ret&#xE2;ngulo_145" data-name="Ret&#xE2;ngulo 145" width="7.416" height="32.705" transform="translate(20.275 0)" fill="#fff"></rect><g id="Grupo_275" data-name="Grupo 275" transform="translate(0 0)"><g id="Grupo_274" data-name="Grupo 274" clip-path="url(#clip-path)"><path id="Caminho_153" data-name="Caminho 153" d="M106.057,36.226H98.641V20.815a2.626,2.626,0,0,0-2.625-2.627H91.108V36.226H83.692V12.193H98.641a7.418,7.418,0,0,1,7.416,7.42Z" transform="translate(-24.171 -3.521)" fill="#fff" fill-rule="evenodd"></path><path id="Caminho_154" data-name="Caminho 154" d="M3.85,0h7.416V8.672h5.845v5.995H11.267v9.417a2.625,2.625,0,0,0,2.625,2.626h3.22v6H11.267a7.418,7.418,0,0,1-7.416-7.42V14.666H0V8.672H3.85Z" transform="translate(0 0)" fill="#fff" fill-rule="evenodd"></path><path id="Caminho_155" data-name="Caminho 155" d="M122.66,0h7.416V8.672h5.845v5.995h-5.845v9.417A2.625,2.625,0,0,0,132.7,26.71h3.22v6h-5.845a7.418,7.418,0,0,1-7.416-7.42V14.666h-3.85V8.672h3.85Z" transform="translate(-34.313 0)" fill="#fff" fill-rule="evenodd"></path><path id="Caminho_156" data-name="Caminho 156" d="M179.335,12.193h5.845v6h-9.034c-2.9,0-5.247,2.7-5.247,6.022s2.348,6.022,5.247,6.022h9.034v5.995H173.872c-5.855,0-10.6-5.38-10.6-12.016s4.747-12.017,10.6-12.017Z" transform="translate(-47.153 -3.521)" fill="#fff" fill-rule="evenodd"></path><path id="Caminho_157" data-name="Caminho 157" d="M60.342,12.192H45.394v6H57.717a2.7,2.7,0,0,1,2.625,2.9H50.9a7.57,7.57,0,0,0,0,15.141H67.758V19.612a7.417,7.417,0,0,0-7.416-7.42m-.233,18.039H51.921a1.575,1.575,0,0,1,0-3.151h8.188Z" transform="translate(-12.516 -3.521)" fill="#fff" fill-rule="evenodd"></path></g></g></g></svg>